<?xml version="1.0" encoding="UTF-8" standalone="no"?>
<svg width="410px" height="410px" viewBox="0 0 410 410" version="1.1" xmlns="http://www.w3.org/2000/svg" xmlns:xlink="http://www.w3.org/1999/xlink" xmlns:sketch="http://www.bohemiancoding.com/sketch/ns">
    <!-- Generator: Sketch 3.4.4 (17249) - http://www.bohemiancoding.com/sketch -->
    <title>FAK_MA_neg_RGB</title>
    <desc>Created with Sketch.</desc>
    <defs></defs>
    <g id="TUM_Fakultätszeichen" stroke="none" stroke-width="1" fill="none" fill-rule="evenodd" sketch:type="MSPage">
        <g id="Negativ" sketch:type="MSLayerGroup" transform="translate(-3257.000000, -280.000000)" fill="#FFFFFF">
            <path d="M3613.88348,572.746943 L3310.10274,572.746943 C3315.2546,563.834498 3456.77926,318.69406 3461.91735,309.809165 C3467.06921,318.69406 3608.7454,563.834498 3613.88348,572.746943 L3613.88348,572.746943 Z M3299.28934,578.987031 L3624.73821,578.987031 L3461.91735,297.315213 L3299.28934,578.987031 L3299.28934,578.987031 Z M3625.16523,579.179882 C3622.10718,580.956861 3465.05806,671.637885 3462,673.401089 C3458.96949,671.637885 3301.87905,580.956861 3298.83477,579.179882 L3298.83477,390.806343 C3301.87905,389.056914 3458.96949,298.362115 3462,296.640237 C3465.05806,298.362115 3622.10718,389.056914 3625.16523,390.806343 L3625.16523,579.179882 L3625.16523,579.179882 Z M3462,289.408346 L3292.5809,387.197285 L3292.5809,582.802715 L3462,680.605429 L3631.40532,582.802715 L3631.40532,387.21106 L3462,289.408346 L3462,289.408346 Z M3462,681.693657 C3353.56296,681.693657 3265.32012,593.450813 3265.32012,485.041325 C3265.32012,376.576737 3353.56296,288.347668 3462,288.347668 C3570.43704,288.347668 3658.67988,376.576737 3658.67988,485.041325 C3658.67988,593.450813 3570.43704,681.693657 3462,681.693657 L3462,681.693657 Z M3462,280 C3348.9621,280 3257,371.975877 3257,485.041325 C3257,598.065448 3348.9621,690 3462,690 C3575.0379,690 3667,598.065448 3667,485.041325 C3667,371.975877 3575.0379,280 3462,280 L3462,280 Z" id="FAK_MA_neg_RGB" sketch:type="MSShapeGroup"></path>
        </g>
    </g>
</svg>