<?xml version="1.0" encoding="UTF-8" standalone="no"?>
<!DOCTYPE svg PUBLIC "-//W3C//DTD SVG 1.1//EN" "http://www.w3.org/Graphics/SVG/1.1/DTD/svg11.dtd">
<svg xmlns="http://www.w3.org/2000/svg" xmlns:xlink="http://www.w3.org/1999/xlink" version="1.1" width="297.47599pt" height="282.78388pt" viewBox="0 0 297.47599 282.78388">
<g enable-background="new">
<path transform="matrix(1,0,0,-1,0,282.78388)" d="M 0 0 L 297.47599 0 L 297.47599 282.78388 L 0 282.78388 Z " fill="#ffffff"/>
<path transform="matrix(1,0,0,-1,0,282.78388)" d="M 31.28125 16.671875 L 297.47599 16.671875 L 297.47599 282.78388 L 31.28125 282.78388 Z " fill="#ffffff"/>
<path transform="matrix(1,0,0,-1,0,282.78388)" d="M 43.381013 16.671875 L 43.381013 13.171875 "/>
<path transform="matrix(1,0,0,-1,0,282.78388)" stroke-width=".8" stroke-linecap="butt" stroke-linejoin="round" fill="none" stroke="#000000" d="M 43.381013 16.671875 L 43.381013 13.171875 "/>
<text xml:space="preserve" transform="matrix(1 0 -0 1 36.013826 280.70576)" font-size="10" font-family="DejaVuSans"><tspan y="0" x="8.378906">2</tspan></text>
<clipPath id="cp0">
<path transform="matrix(.01,0,0,-.01,36.013826,280.70576)" d="M -1021 -463 L 1794 -463 L 1794 1233 L -1021 1233 Z "/>
</clipPath>
<g clip-path="url(#cp0)">
<path transform="matrix(.01,0,0,-.01,36.013826,280.70576)" d="M 106 355 L 732 355 L 732 272 L 106 272 L 106 355 Z "/>
</g>
<path transform="matrix(1,0,0,-1,0,282.78388)" d="M 103.879817 16.671875 L 103.879817 13.171875 "/>
<path transform="matrix(1,0,0,-1,0,282.78388)" stroke-width=".8" stroke-linecap="butt" stroke-linejoin="round" fill="none" stroke="#000000" d="M 103.879817 16.671875 L 103.879817 13.171875 "/>
<text xml:space="preserve" transform="matrix(1 0 -0 1 96.51263 280.70576)" font-size="10" font-family="DejaVuSans"><tspan y="0" x="8.378906">1</tspan></text>
<clipPath id="cp1">
<path transform="matrix(.01,0,0,-.01,96.51263,280.70576)" d="M -1021 -463 L 1794 -463 L 1794 1233 L -1021 1233 Z "/>
</clipPath>
<g clip-path="url(#cp1)">
<path transform="matrix(.01,0,0,-.01,96.51263,280.70576)" d="M 106 355 L 732 355 L 732 272 L 106 272 L 106 355 Z "/>
</g>
<path transform="matrix(1,0,0,-1,0,282.78388)" d="M 164.37862 16.671875 L 164.37862 13.171875 "/>
<path transform="matrix(1,0,0,-1,0,282.78388)" stroke-width=".8" stroke-linecap="butt" stroke-linejoin="round" fill="none" stroke="#000000" d="M 164.37862 16.671875 L 164.37862 13.171875 "/>
<text xml:space="preserve" transform="matrix(1 0 -0 1 161.19893 280.70576)" font-size="10" font-family="DejaVuSans"><tspan y="0" x="0">0</tspan></text>
<path transform="matrix(1,0,0,-1,0,282.78388)" d="M 224.87743 16.671875 L 224.87743 13.171875 "/>
<path transform="matrix(1,0,0,-1,0,282.78388)" stroke-width=".8" stroke-linecap="butt" stroke-linejoin="round" fill="none" stroke="#000000" d="M 224.87743 16.671875 L 224.87743 13.171875 "/>
<text xml:space="preserve" transform="matrix(1 0 -0 1 221.69774 280.70576)" font-size="10" font-family="DejaVuSans"><tspan y="0" x="0">1</tspan></text>
<path transform="matrix(1,0,0,-1,0,282.78388)" d="M 285.37623 16.671875 L 285.37623 13.171875 "/>
<path transform="matrix(1,0,0,-1,0,282.78388)" stroke-width=".8" stroke-linecap="butt" stroke-linejoin="round" fill="none" stroke="#000000" d="M 285.37623 16.671875 L 285.37623 13.171875 "/>
<text xml:space="preserve" transform="matrix(1 0 -0 1 282.19654 280.70576)" font-size="10" font-family="DejaVuSans"><tspan y="0" x="0">2</tspan></text>
<path transform="matrix(1,0,0,-1,0,282.78388)" d="M 31.28125 28.730267 L 27.78125 28.730267 "/>
<path transform="matrix(1,0,0,-1,0,282.78388)" stroke-width=".8" stroke-linecap="butt" stroke-linejoin="round" fill="none" stroke="#000000" d="M 31.28125 28.730267 L 27.78125 28.730267 "/>
<text xml:space="preserve" transform="matrix(1 0 -0 1 0 257.8505)" font-size="10" font-family="DejaVuSans"><tspan y="0" x="8.378906 14.738907 17.918908">2.0</tspan></text>
<clipPath id="cp2">
<path transform="matrix(.01,0,0,-.01,0,257.8505)" d="M -1021 -463 L 1794 -463 L 1794 1233 L -1021 1233 Z "/>
</clipPath>
<g clip-path="url(#cp2)">
<path transform="matrix(.01,0,0,-.01,0,257.8505)" d="M 106 355 L 732 355 L 732 272 L 106 272 L 106 355 Z "/>
</g>
<path transform="matrix(1,0,0,-1,0,282.78388)" d="M 31.28125 58.979669 L 27.78125 58.979669 "/>
<path transform="matrix(1,0,0,-1,0,282.78388)" stroke-width=".8" stroke-linecap="butt" stroke-linejoin="round" fill="none" stroke="#000000" d="M 31.28125 58.979669 L 27.78125 58.979669 "/>
<text xml:space="preserve" transform="matrix(1 0 -0 1 0 227.60108)" font-size="10" font-family="DejaVuSans"><tspan y="0" x="8.378906 14.738907 17.918908">1.5</tspan></text>
<clipPath id="cp3">
<path transform="matrix(.01,0,0,-.01,0,227.60108)" d="M -1021 -463 L 1794 -463 L 1794 1233 L -1021 1233 Z "/>
</clipPath>
<g clip-path="url(#cp3)">
<path transform="matrix(.01,0,0,-.01,0,227.60108)" d="M 106 355 L 732 355 L 732 272 L 106 272 L 106 355 Z "/>
</g>
<path transform="matrix(1,0,0,-1,0,282.78388)" d="M 31.28125 89.22907 L 27.78125 89.22907 "/>
<path transform="matrix(1,0,0,-1,0,282.78388)" stroke-width=".8" stroke-linecap="butt" stroke-linejoin="round" fill="none" stroke="#000000" d="M 31.28125 89.22907 L 27.78125 89.22907 "/>
<text xml:space="preserve" transform="matrix(1 0 -0 1 0 197.35169)" font-size="10" font-family="DejaVuSans"><tspan y="0" x="8.378906 14.738907 17.918908">1.0</tspan></text>
<clipPath id="cp4">
<path transform="matrix(.01,0,0,-.01,0,197.35169)" d="M -1021 -463 L 1794 -463 L 1794 1233 L -1021 1233 Z "/>
</clipPath>
<g clip-path="url(#cp4)">
<path transform="matrix(.01,0,0,-.01,0,197.35169)" d="M 106 355 L 732 355 L 732 272 L 106 272 L 106 355 Z "/>
</g>
<path transform="matrix(1,0,0,-1,0,282.78388)" d="M 31.28125 119.47847 L 27.78125 119.47847 "/>
<path transform="matrix(1,0,0,-1,0,282.78388)" stroke-width=".8" stroke-linecap="butt" stroke-linejoin="round" fill="none" stroke="#000000" d="M 31.28125 119.47847 L 27.78125 119.47847 "/>
<text xml:space="preserve" transform="matrix(1 0 -0 1 0 167.10228)" font-size="10" font-family="DejaVuSans"><tspan y="0" x="8.378906 14.738907 17.918908">0.5</tspan></text>
<clipPath id="cp5">
<path transform="matrix(.01,0,0,-.01,0,167.10228)" d="M -1021 -463 L 1794 -463 L 1794 1233 L -1021 1233 Z "/>
</clipPath>
<g clip-path="url(#cp5)">
<path transform="matrix(.01,0,0,-.01,0,167.10228)" d="M 106 355 L 732 355 L 732 272 L 106 272 L 106 355 Z "/>
</g>
<path transform="matrix(1,0,0,-1,0,282.78388)" d="M 31.28125 149.72788 L 27.78125 149.72788 "/>
<path transform="matrix(1,0,0,-1,0,282.78388)" stroke-width=".8" stroke-linecap="butt" stroke-linejoin="round" fill="none" stroke="#000000" d="M 31.28125 149.72788 L 27.78125 149.72788 "/>
<text xml:space="preserve" transform="matrix(1 0 -0 1 8.375 136.85288)" font-size="10" font-family="DejaVuSans"><tspan y="0" x="0 6.3600008 9.540001">0.0</tspan></text>
<path transform="matrix(1,0,0,-1,0,282.78388)" d="M 31.28125 179.97728 L 27.78125 179.97728 "/>
<path transform="matrix(1,0,0,-1,0,282.78388)" stroke-width=".8" stroke-linecap="butt" stroke-linejoin="round" fill="none" stroke="#000000" d="M 31.28125 179.97728 L 27.78125 179.97728 "/>
<text xml:space="preserve" transform="matrix(1 0 -0 1 8.375 106.60347)" font-size="10" font-family="DejaVuSans"><tspan y="0" x="0 6.3600008 9.540001">0.5</tspan></text>
<path transform="matrix(1,0,0,-1,0,282.78388)" d="M 31.28125 210.22669 L 27.78125 210.22669 "/>
<path transform="matrix(1,0,0,-1,0,282.78388)" stroke-width=".8" stroke-linecap="butt" stroke-linejoin="round" fill="none" stroke="#000000" d="M 31.28125 210.22669 L 27.78125 210.22669 "/>
<text xml:space="preserve" transform="matrix(1 0 -0 1 8.375 76.354068)" font-size="10" font-family="DejaVuSans"><tspan y="0" x="0 6.3600008 9.540001">1.0</tspan></text>
<path transform="matrix(1,0,0,-1,0,282.78388)" d="M 31.28125 240.47608 L 27.78125 240.47608 "/>
<path transform="matrix(1,0,0,-1,0,282.78388)" stroke-width=".8" stroke-linecap="butt" stroke-linejoin="round" fill="none" stroke="#000000" d="M 31.28125 240.47608 L 27.78125 240.47608 "/>
<text xml:space="preserve" transform="matrix(1 0 -0 1 8.375 46.104677)" font-size="10" font-family="DejaVuSans"><tspan y="0" x="0 6.3600008 9.540001">1.5</tspan></text>
<path transform="matrix(1,0,0,-1,0,282.78388)" d="M 31.28125 270.7255 L 27.78125 270.7255 "/>
<path transform="matrix(1,0,0,-1,0,282.78388)" stroke-width=".8" stroke-linecap="butt" stroke-linejoin="round" fill="none" stroke="#000000" d="M 31.28125 270.7255 L 27.78125 270.7255 "/>
<text xml:space="preserve" transform="matrix(1 0 -0 1 8.375 15.855255)" font-size="10" font-family="DejaVuSans"><tspan y="0" x="0 6.3600008 9.540001">2.0</tspan></text>
<clipPath id="cp6">
<path transform="matrix(1,0,0,-1,0,282.78388)" d="M 31.28125 16.671875 L 297.47599 16.671875 L 297.47599 282.78388 L 31.28125 282.78388 Z "/>
</clipPath>
<g clip-path="url(#cp6)">
<path transform="matrix(1,0,0,-1,0,282.78388)" stroke-width="1" stroke-linecap="square" stroke-linejoin="round" fill="none" stroke="#e30000" d="M 146.39229 148.83022 L 146.04079 146.9639 L 144.57094 144.68422 L 142.90404 141.91178 L 141.14858 138.54088 L 138.82299 134.11115 L 136.8544 128.87909 L 135.40673 122.84588 L 134.40837 115.767459 L 134.53275 108.2148 L 135.85648 100.32608 L 138.80588 93.05285 L 143.18379 86.64466 L 148.76624 81.32557 L 155.48294 78.74205 L 162.57746 77.50343 L 169.7802 77.64891 L 176.67226 80.00719 L 182.8945 83.91853 L 188.12133 89.23245 L 191.6057 96.61951 L 193.71056 104.31316 L 194.39002 112.094768 L 193.98247 119.37654 L 192.69718 125.96579 L 190.68582 131.79193 L 188.79329 136.43236 L 186.72527 140.30797 L 184.62688 143.48212 L 183.44899 145.87271 L 182.53849 147.9107 L 181.94779 149.72788 L 182.54506 151.5457 L 183.46384 153.58603 L 184.64675 155.97977 L 186.74933 159.15793 L 188.81871 163.03725 L 190.70778 167.67879 L 192.71746 173.50698 L 193.9967 180.0938 L 194.39414 187.36614 L 193.72753 195.16886 L 191.6209 202.8659 L 188.12665 210.23688 L 182.8967 215.54505 L 176.67069 219.43964 L 169.77782 221.7752 L 162.57822 221.92144 L 155.4836 220.7084 L 148.75542 218.17763 L 143.16362 212.87113 L 138.77977 206.46076 L 135.83699 199.16342 L 134.50458 191.28014 L 134.38051 183.71987 L 135.37985 176.6348 L 136.84125 170.58663 L 138.81653 165.34854 L 141.14183 160.91812 L 142.898 157.54619 L 144.56754 154.7724 L 146.04489 152.49124 L 146.39418 150.62545 L 146.39229 148.83022 "/>
</g>
<clipPath id="cp7">
<path transform="matrix(1,0,0,-1,0,282.78388)" d="M 31.28125 16.671875 L 297.47599 16.671875 L 297.47599 282.78388 L 31.28125 282.78388 Z "/>
</clipPath>
<g clip-path="url(#cp7)">
<path transform="matrix(1,0,0,-1,0,282.78388)" stroke-width="1" stroke-linecap="square" stroke-linejoin="round" fill="none" stroke="#00dbff" d="M 43.381013 149.72788 L 43.53142 143.69664 L 43.982275 137.6804 L 44.732454 131.69412 L 45.78009 125.75266 L 47.122587 119.87082 L 48.756597 114.0632 L 50.67806 108.34425 L 52.882204 102.728199 L 55.36354 97.22898 L 58.11591 91.86029 L 61.13246 86.63546 L 64.4057 81.5675 L 67.92749 76.66898 L 71.68907 71.95211 L 75.6811 67.4286 L 79.89363 63.1097 L 84.316219 59.00614 L 88.93784 55.128137 L 93.74703 51.485319 L 98.73182 48.086748 L 103.879817 44.940874 L 109.17822 42.055517 L 114.61386 39.437849 L 120.173229 37.09438 L 125.8425 35.030935 L 131.60758 33.252645 L 137.45412 31.76393 L 143.3676 30.568493 L 149.33333 29.669304 L 155.33646 29.068602 L 161.36206 28.767876 L 167.39517 28.767876 L 173.42078 29.068602 L 179.4239 29.669304 L 185.38964 30.568493 L 191.30312 31.76393 L 197.14968 33.252645 L 202.91475 35.030935 L 208.58402 37.09438 L 214.14337 39.437849 L 219.57903 42.055517 L 224.87743 44.940874 L 230.02542 48.086748 L 235.01021 51.485319 L 239.8194 55.128137 L 244.44103 59.00614 L 248.8636 63.1097 L 253.07614 67.428607 L 257.06819 71.95211 L 260.82975 76.66898 L 264.35154 81.5675 L 267.6248 86.63546 L 270.64134 91.86029 L 273.3937 97.22898 L 275.87504 102.728199 L 278.0792 108.34425 L 280.00065 114.0632 L 281.63465 119.87082 L 282.97715 125.75266 L 284.02479 131.69412 L 284.77497 137.6804 L 285.22584 143.69664 L 285.37623 149.72788 L 285.22584 155.75911 L 284.77497 161.77535 L 284.02479 167.76163 L 282.97715 173.70308 L 281.63465 179.58493 L 280.00065 185.39255 L 278.0792 191.1115 L 275.87504 196.72756 L 273.3937 202.22678 L 270.64134 207.59546 L 267.6248 212.82028 L 264.35154 217.88826 L 260.82975 222.78676 L 257.06819 227.50363 L 253.07614 232.02715 L 248.8636 236.34606 L 244.44103 240.4496 L 239.8194 244.32762 L 235.01021 247.97043 L 230.02542 251.369 L 224.87743 254.51488 L 219.57901 257.40025 L 214.14337 260.0179 L 208.58402 262.36137 L 202.91475 264.4248 L 197.14968 266.2031 L 191.30312 267.69184 L 185.38964 268.88728 L 179.4239 269.78645 L 173.42078 270.38716 L 167.39517 270.68788 L 161.36206 270.68788 L 155.33646 270.38716 L 149.33333 269.78645 L 143.3676 268.88728 L 137.45412 267.69184 L 131.60758 266.2031 L 125.8425 264.4248 L 120.173229 262.36137 L 114.61386 260.0179 L 109.17822 257.40025 L 103.879817 254.51488 L 98.73182 251.369 L 93.74703 247.97043 L 88.93784 244.32762 L 84.316219 240.4496 L 79.89363 236.34606 L 75.6811 232.02715 L 71.68907 227.50363 L 67.92749 222.78676 L 64.4057 217.88826 L 61.13246 212.82028 L 58.11591 207.59546 L 55.36354 202.22678 L 52.882204 196.72756 L 50.67806 191.1115 L 48.756597 185.39255 L 47.122587 179.58493 L 45.78009 173.70308 L 44.732454 167.76163 L 43.982275 161.77535 L 43.53142 155.75911 L 43.381013 149.72788 "/>
</g>
<clipPath id="cp8">
<path transform="matrix(1,0,0,-1,0,282.78388)" d="M 31.28125 16.671875 L 297.47599 16.671875 L 297.47599 282.78388 L 31.28125 282.78388 Z "/>
</clipPath>
<g clip-path="url(#cp8)">
<path transform="matrix(1,0,0,-1,0,282.78388)" stroke-width="1" stroke-linecap="square" stroke-linejoin="round" fill="none" stroke="#00dbff" d="M 151.84612 149.1024 L 151.08512 147.7242 L 148.82184 145.76663 L 146.14673 143.09201 L 143.21579 139.53639 L 139.89125 134.76395 L 137.09236 129.05934 L 134.99158 122.460689 L 133.88405 115.17333 L 134.09677 107.60839 L 135.6417 99.95405 L 138.8064 93.05401 L 143.28905 86.95795 L 148.8905 81.87003 L 155.5035 78.906108 L 162.5771 77.48963 L 169.77867 77.66923 L 176.61872 80.31081 L 182.77097 84.357608 L 187.95172 89.664608 L 191.66974 96.49457 L 194.04163 103.80056 L 194.97968 111.35536 L 194.46057 118.886379 L 192.8417 125.844509 L 190.23809 132.09719 L 187.29074 137.2506 L 184.13777 141.3987 L 180.96347 144.61212 L 178.83263 146.80594 L 177.3102 148.43387 L 176.47838 149.72788 L 177.3102 151.02188 L 178.83502 152.6503 L 180.96347 154.84363 L 184.14128 158.05854 L 187.295 162.20748 L 190.23809 167.35857 L 192.8459 173.61476 L 194.46448 180.57338 L 194.97968 188.10039 L 194.04445 195.65958 L 191.67174 202.96509 L 187.95172 209.79116 L 182.77182 215.10118 L 176.619 219.14658 L 169.77867 221.78653 L 162.5771 221.96613 L 155.50371 220.548 L 148.8905 217.58573 L 143.29006 212.49481 L 138.8064 206.40175 L 135.6417 199.5017 L 134.09677 191.84737 L 133.88776 184.27823 L 134.99158 176.99506 L 137.09673 170.39311 L 139.89539 164.68927 L 143.21579 159.91936 L 146.15032 156.36244 L 148.82419 153.68852 L 151.08512 151.73155 L 151.84696 150.3533 L 151.84612 149.1024 "/>
</g>
<path transform="matrix(1,0,0,-1,0,282.78388)" stroke-width=".8" stroke-linecap="square" stroke-miterlimit="10" stroke-linejoin="miter" fill="none" stroke="#000000" d="M 31.28125 16.671875 L 31.28125 282.78388 "/>
<path transform="matrix(1,0,0,-1,0,282.78388)" stroke-width=".8" stroke-linecap="square" stroke-miterlimit="10" stroke-linejoin="miter" fill="none" stroke="#000000" d="M 297.47599 16.671875 L 297.47599 282.78388 "/>
<path transform="matrix(1,0,0,-1,0,282.78388)" stroke-width=".8" stroke-linecap="square" stroke-miterlimit="10" stroke-linejoin="miter" fill="none" stroke="#000000" d="M 31.28125 16.671875 L 297.47599 16.671875 "/>
<path transform="matrix(1,0,0,-1,0,282.78388)" stroke-width=".8" stroke-linecap="square" stroke-miterlimit="10" stroke-linejoin="miter" fill="none" stroke="#000000" d="M 31.28125 282.78388 L 297.47599 282.78388 "/>
</g>
</svg>
