<?xml version="1.0" encoding="UTF-8" standalone="no"?>
<svg width="410px" height="410px" viewBox="0 0 410 410" version="1.1" xmlns="http://www.w3.org/2000/svg" xmlns:xlink="http://www.w3.org/1999/xlink" xmlns:sketch="http://www.bohemiancoding.com/sketch/ns">
    <!-- Generator: Sketch 3.4.4 (17249) - http://www.bohemiancoding.com/sketch -->
    <title>FAK_MA_RGB</title>
    <desc>Created with Sketch.</desc>
    <defs></defs>
    <g id="TUM_Fakultätszeichen" stroke="none" stroke-width="1" fill="none" fill-rule="evenodd" sketch:type="MSPage">
        <g id="Blau---BASIS-Konstruktion" sketch:type="MSLayerGroup" transform="translate(-2946.000000, -40.000000)" fill="#0065BD">
            <path d="M3302.88348,332.746943 L2999.10274,332.746943 C3004.2546,323.834498 3145.77926,78.6940599 3150.91735,69.8091654 C3156.06921,78.6940599 3297.7454,323.834498 3302.88348,332.746943 L3302.88348,332.746943 Z M2988.28934,338.987031 L3313.73821,338.987031 L3150.91735,57.315213 L2988.28934,338.987031 L2988.28934,338.987031 Z M3314.16523,339.179882 C3311.10718,340.956861 3154.05806,431.637885 3151,433.401089 C3147.96949,431.637885 2990.87905,340.956861 2987.83477,339.179882 L2987.83477,150.806343 C2990.87905,149.056914 3147.96949,58.3621153 3151,56.6402365 C3154.05806,58.3621153 3311.10718,149.056914 3314.16523,150.806343 L3314.16523,339.179882 L3314.16523,339.179882 Z M3151,49.4083457 L2981.5809,147.197285 L2981.5809,342.802715 L3151,440.605429 L3320.40532,342.802715 L3320.40532,147.21106 L3151,49.4083457 L3151,49.4083457 Z M3151,441.693657 C3042.56296,441.693657 2954.32012,353.450813 2954.32012,245.041325 C2954.32012,136.576737 3042.56296,48.3476683 3151,48.3476683 C3259.43704,48.3476683 3347.67988,136.576737 3347.67988,245.041325 C3347.67988,353.450813 3259.43704,441.693657 3151,441.693657 L3151,441.693657 Z M3151,40 C3037.9621,40 2946,131.975877 2946,245.041325 C2946,358.065448 3037.9621,450 3151,450 C3264.0379,450 3356,358.065448 3356,245.041325 C3356,131.975877 3264.0379,40 3151,40 L3151,40 Z" id="FAK_MA_RGB" sketch:type="MSShapeGroup"></path>
        </g>
    </g>
</svg>